<?xml version="1.0"?>
<svg width="105" height="80" xmlns="http://www.w3.org/2000/svg" xmlns:svg="http://www.w3.org/2000/svg">
 <!-- Created with SVG-edit - http://svg-edit.googlecode.com/ -->
 <g>
  <title>Layer 1</title>
  <polygon fill="#FF0000" id="svg_2"/>
  <polygon fill="#FF0000" id="svg_3"/>
  <polygon fill="#FF0000" id="svg_4"/>
  <polygon fill="#FF0000" id="svg_5"/>
  <polygon fill="#FF0000" id="svg_6"/>
  <path id="svg_10" d="m3.5,39.5c0,-15.46961 21.92818,-28 49,-28c27.07182,0 49,12.53039 49,28c0,15.46961 -21.92818,28 -49,28c-27.07182,0 -49,-12.53039 -49,-28z" stroke-linecap="null" stroke-linejoin="null" stroke-dasharray="null" stroke-width="5" stroke="#ef6262" fill="#FF0000"/>
  <path d="m52,26.5c-0.02084,1 -0.7482,1.54594 -0.96399,2.38934c-0.23895,0.93392 0.17041,1.97707 -0.38867,2.55349c-0.50946,0.52526 -1.07819,0.7039 -1.56201,1.34117c-0.56912,0.74965 -0.25763,1.67708 -0.73267,2.36333c-0.48617,0.70234 -0.12872,1.95709 -0.77798,2.31667c-0.81202,0.44971 -1.39902,0.61552 -1.85868,1.32c-0.48739,0.74696 -0.72332,1.41584 -1.36334,1.716c-0.71396,0.33485 -1.63269,0.38111 -2.2955,1c-0.6105,0.57008 -0.87149,0.6354 -1.63184,1.036c-0.75164,0.39603 -1.013,1.13768 -1.51065,1.68c-0.61075,0.66556 -1.7388,0.29655 -2.41467,0.784c-0.71188,0.5134 -1.0986,0.83972 -1.72134,1.3785c-0.72077,0.6236 -1.95054,-0.19128 -2.65732,0.34284c-0.64075,0.4842 -1.46744,0.52243 -2.06418,1.13133c-0.49326,0.5033 -1.14117,0.64733 -2.06165,0.64733l-0.87402,0" id="svg_11" stroke-linecap="null" stroke-linejoin="null" stroke-dasharray="null" stroke-width="5" stroke="#fcf9f9" fill="none"/>
  <path d="m81,27.101486c-1.01068,-0.01067 -1.61136,-0.74975 -2.01068,-0.57467c-0.68961,0.30237 -1.46774,0.42605 -2.28482,0.92734c-0.74948,0.45982 -1.2594,1.06417 -1.92584,1.52583c-0.71613,0.4961 -1.32587,0.68282 -1.94532,1.1215c-0.70074,0.49626 -1.77618,0 -2.66668,0c-0.814,0 -1.11908,0.62828 -1.59198,1c-0.53312,0.41905 -0.9892,1.08407 -1.62735,1.64733c-0.5954,0.52554 -1.45548,0.9595 -1.89017,1.70534c-0.43839,0.75213 -0.67914,1.30479 -1.05716,1.93133c-0.45599,0.75576 -0.341,1.83973 0,2.68c0.28104,0.69252 1.44131,0.91986 2.20001,1.32c0.85837,0.45272 1.49906,0.77038 2.29999,1.216c0.79904,0.44455 1.74939,0.35412 2.60016,0.72134c0.71893,0.31031 1.55124,0.74262 2.24716,0.77416c1.01578,0.04604 1.75989,0.45746 2.65268,0.83783c0.75153,0.32019 1.71902,-0.01364 2.56399,0.16667c0.84492,0.1803 1.64679,0.43603 2.31452,1c0.55481,0.46861 0.19998,1.80903 -0.39935,2c-0.9133,0.29101 -1.41257,0.76733 -2.12583,0.98933c-0.96493,0.30035 -1.77206,0.01252 -2.75467,0.29466c-0.63061,0.18107 -1.76153,0.58086 -2.54684,0.65884c-0.788,0.07825 -1.71848,0.05717 -2.66647,0.05717c-0.87201,0 -1.63202,-0.00263 -2.55201,0c-0.78601,0.00225 -1.6206,-0.04207 -2.66668,0.16666c-0.94727,0.18901 -1.54337,0.5654 -2.56665,0.748c-0.79099,0.14115 -1.80002,0.08534 -2.60001,0.08534c-1,0 -1.79999,0 -2.60001,0c-0.99548,0 -1.91467,0 -2.85833,0c-0.89884,0 -1.83716,0 -2.70832,0c-0.8905,0 -1.79733,0 -2,-0.83334l-0.82885,-0.16666l-0.57917,-0.57467" id="svg_13" stroke-linecap="null" stroke-linejoin="null" stroke-dasharray="null" stroke-width="5" stroke="#f9f4f4" fill="none"/>
  <path d="m27,28.683987c1,0 2.02988,-0.41397 2.716,0c0.62653,0.37801 1.19303,0.7766 2,1c0.79709,0.22066 1.57926,0.42749 2.284,1.01067c0.64667,0.53513 0.5958,1.26162 1.22134,1.86783c0.5737,0.55597 1.28751,0.56819 1.77866,1.20684c0.55841,0.7261 0.38663,1.34101 1,1.9355c0.63605,0.61647 1.05716,0.97916 1.94284,0.97916l0.8905,0l0.814,0" id="svg_12" stroke-linecap="null" stroke-linejoin="null" stroke-dasharray="null" stroke-width="5" stroke="#f7eded" fill="#00ffff"/>
 </g>
</svg>